<svg id="svg" version="1.1" xmlns="http://www.w3.org/2000/svg" xmlns:xlink="http://www.w3.org/1999/xlink" width="400" height="262.85714285714283" viewBox="0, 0, 400,262.85714285714283"><g id="svgg"><path id="path0" d="M214.083 10.679 C 210.416 11.018,206.858 12.487,202.321 15.535 C 200.907 16.485,198.625 17.927,197.250 18.739 C 194.495 20.367,190.570 22.979,189.802 23.696 C 189.270 24.193,184.696 26.855,175.250 32.165 C 153.146 44.592,145.912 48.995,117.333 67.420 C 107.173 73.971,106.319 74.513,105.769 74.760 C 105.484 74.888,103.300 75.662,100.917 76.479 C 87.269 81.158,76.392 85.651,65.447 91.131 C 61.818 92.948,60.609 93.629,60.499 93.918 C 60.419 94.129,60.273 94.351,60.174 94.412 C 58.414 95.500,58.801 99.784,60.920 102.671 C 61.239 103.106,61.500 103.500,61.500 103.547 C 61.500 103.642,58.850 105.334,55.250 107.537 C 53.967 108.322,51.379 109.804,49.500 110.830 C 41.456 115.223,39.222 117.440,36.692 123.539 C 32.093 134.624,33.200 143.809,39.936 150.446 C 41.434 151.922,44.878 154.333,45.488 154.333 C 45.696 154.333,46.477 154.632,47.225 154.998 C 49.620 156.168,51.375 156.522,55.500 156.666 L 59.083 156.791 63.000 157.800 C 71.640 160.027,73.518 160.478,75.917 160.896 C 77.292 161.136,80.629 161.712,83.333 162.176 C 93.209 163.871,103.344 165.723,107.500 166.592 C 108.646 166.831,109.771 167.054,110.000 167.087 C 113.363 167.573,113.456 167.612,120.052 171.271 C 126.508 174.853,128.194 175.833,127.896 175.833 C 127.738 175.833,123.398 174.983,122.333 174.744 C 122.104 174.692,122.854 175.191,124.000 175.851 C 129.109 178.795,135.018 182.318,140.333 185.586 C 145.728 188.903,147.260 189.865,153.457 193.820 C 159.370 197.594,180.731 211.891,180.550 211.953 C 180.440 211.991,177.740 211.598,174.550 211.080 C 171.360 210.561,168.394 210.080,167.958 210.010 C 166.984 209.854,166.984 209.848,167.983 210.489 C 168.670 210.930,169.100 211.053,170.692 211.264 C 171.732 211.402,174.707 211.796,177.302 212.141 C 181.554 212.705,181.983 212.737,181.636 212.463 L 181.250 212.158 181.667 212.242 C 181.896 212.288,182.833 212.442,183.750 212.585 C 184.667 212.728,185.555 212.874,185.725 212.911 C 186.139 213.000,186.360 213.164,182.331 210.397 C 176.841 206.626,174.148 204.834,169.250 201.692 C 166.775 200.105,163.019 197.668,160.903 196.278 C 143.862 185.079,140.236 182.780,132.091 178.015 C 130.353 176.998,129.041 176.168,129.174 176.169 C 129.308 176.170,131.104 176.510,133.167 176.925 C 135.229 177.340,138.820 178.050,141.146 178.502 C 146.223 179.490,143.803 178.143,160.167 189.088 C 180.397 202.618,187.442 207.016,197.096 212.139 C 205.871 216.795,210.173 216.100,230.250 206.788 C 235.044 204.564,237.251 203.660,242.167 201.906 C 246.101 200.503,251.151 198.694,256.333 196.831 C 258.579 196.024,263.042 194.425,266.250 193.279 C 269.458 192.132,273.246 190.768,274.667 190.247 C 290.721 184.364,294.409 182.959,306.250 178.208 C 331.717 167.990,337.911 165.613,347.667 162.312 C 356.436 159.345,368.607 155.840,370.167 155.832 C 374.351 155.812,376.697 151.485,376.447 144.250 C 376.157 135.861,371.832 128.023,366.029 125.372 L 365.083 124.940 365.833 124.815 C 368.416 124.388,372.850 124.802,374.026 125.581 C 375.434 126.513,377.625 130.412,379.799 135.857 C 383.184 144.335,382.124 150.790,376.143 158.112 C 375.606 158.769,375.167 159.379,375.167 159.467 C 375.167 159.618,373.722 160.109,370.500 161.052 C 369.721 161.280,367.808 161.972,366.250 162.588 C 363.761 163.573,362.535 163.979,360.792 164.397 C 360.540 164.457,360.333 164.605,360.333 164.725 C 360.333 165.341,337.867 173.797,316.583 181.192 C 314.475 181.924,312.037 182.775,311.167 183.083 C 310.296 183.391,308.496 184.017,307.167 184.475 C 305.837 184.933,303.737 185.658,302.500 186.086 C 301.262 186.514,298.750 187.377,296.917 188.003 C 295.083 188.629,291.033 190.015,287.917 191.083 C 282.418 192.969,277.464 194.662,275.417 195.356 C 274.867 195.542,273.336 196.068,272.016 196.525 C 270.696 196.982,267.996 197.906,266.016 198.579 C 262.026 199.935,257.652 201.433,254.042 202.680 C 252.735 203.131,250.579 203.875,249.250 204.333 C 240.655 207.297,236.052 208.896,229.833 211.079 C 215.430 216.134,211.678 217.508,210.403 218.195 C 205.887 220.632,198.755 220.329,194.506 217.522 C 194.005 217.191,192.981 216.648,192.231 216.316 C 190.539 215.566,187.076 213.614,187.304 213.538 C 187.396 213.507,188.615 213.636,190.012 213.824 C 193.753 214.329,193.711 214.218,189.917 213.574 C 186.229 212.948,185.946 212.916,186.333 213.167 C 186.666 213.382,186.545 213.376,184.360 213.072 C 183.327 212.929,182.409 212.836,182.319 212.866 C 182.111 212.935,188.324 217.572,190.750 219.158 C 195.660 222.368,199.635 223.364,203.337 222.312 C 204.022 222.118,204.883 221.969,205.250 221.983 C 205.684 221.999,208.450 221.241,213.167 219.813 C 217.154 218.606,220.717 217.530,221.083 217.421 C 221.450 217.313,221.969 217.133,222.236 217.022 C 222.504 216.911,223.629 216.556,224.736 216.234 C 228.993 214.994,234.349 213.257,248.083 208.661 C 265.555 202.815,282.001 196.886,298.917 190.335 C 308.507 186.621,328.504 179.273,342.841 174.195 C 350.220 171.581,351.451 171.091,357.250 168.453 C 363.138 165.775,364.374 165.309,366.250 165.061 C 369.532 164.628,373.536 163.100,375.250 161.626 C 375.617 161.311,376.137 160.998,376.406 160.932 C 377.066 160.769,380.527 157.266,381.526 155.750 C 386.633 147.998,385.879 138.729,379.339 128.867 C 376.005 123.840,373.598 122.197,365.417 119.362 C 361.736 118.087,357.141 116.346,355.083 115.448 C 354.350 115.127,352.137 114.188,350.167 113.361 C 348.196 112.533,345.196 111.244,343.500 110.495 C 341.804 109.747,339.566 108.767,338.526 108.317 L 336.636 107.499 336.151 107.844 C 335.492 108.314,335.524 108.380,336.625 108.832 C 337.152 109.048,338.108 109.465,338.750 109.758 C 339.392 110.052,340.779 110.669,341.833 111.131 C 342.887 111.592,345.025 112.548,346.583 113.255 C 351.537 115.502,352.306 115.811,358.667 118.113 C 362.821 119.618,365.666 120.764,367.833 121.808 L 369.250 122.490 368.167 122.401 C 365.605 122.190,361.788 123.191,356.333 125.506 C 346.462 129.695,332.276 135.024,313.750 141.503 C 312.742 141.856,311.167 142.406,310.250 142.727 C 309.333 143.047,307.458 143.695,306.083 144.167 C 304.708 144.638,302.871 145.273,302.000 145.578 C 301.129 145.883,299.929 146.299,299.333 146.503 C 298.737 146.707,296.412 147.509,294.167 148.285 C 291.921 149.062,289.671 149.836,289.167 150.007 C 288.662 150.177,286.717 150.843,284.843 151.487 C 282.969 152.131,281.419 152.641,281.398 152.620 C 281.266 152.488,295.779 139.784,301.250 135.243 C 302.350 134.330,303.362 133.475,303.500 133.343 C 304.529 132.355,311.546 126.911,320.261 120.340 C 329.018 113.737,335.500 108.636,335.500 108.349 C 335.500 108.269,335.203 108.084,334.840 107.939 C 334.478 107.794,333.859 107.527,333.465 107.346 C 333.072 107.165,331.643 106.538,330.291 105.953 L 327.831 104.889 328.374 104.396 C 328.672 104.125,329.892 103.085,331.083 102.086 C 340.697 94.024,348.543 85.814,350.505 81.760 C 352.119 78.424,351.952 75.854,349.977 73.693 L 349.116 72.750 346.100 71.822 C 344.441 71.312,341.753 70.529,340.128 70.083 L 337.172 69.272 336.961 68.678 C 336.474 67.307,336.681 61.710,337.317 59.020 L 337.884 56.624 341.271 53.292 C 351.377 43.350,353.651 38.516,350.150 34.417 C 349.182 33.283,348.686 33.083,341.907 31.083 C 323.933 25.780,306.891 22.717,268.667 17.918 C 257.834 16.558,255.698 16.237,242.167 13.935 C 226.804 11.321,218.083 10.310,214.083 10.679 M222.417 17.005 C 226.114 17.251,235.637 18.581,235.951 18.896 C 236.116 19.061,216.263 33.649,189.083 53.335 C 172.931 65.034,159.422 74.979,159.534 75.088 C 159.581 75.133,161.806 75.540,169.583 76.922 C 190.298 80.605,220.953 86.365,247.250 91.517 C 251.467 92.343,256.642 93.355,258.750 93.767 C 260.858 94.178,263.483 94.696,264.583 94.919 C 265.683 95.141,270.218 96.041,274.660 96.918 C 279.102 97.796,282.756 98.534,282.781 98.558 C 282.805 98.583,281.083 100.182,278.954 102.113 C 276.825 104.044,274.238 106.418,273.206 107.389 C 272.173 108.360,269.885 110.483,268.122 112.106 C 266.359 113.729,263.866 116.038,262.582 117.237 C 261.297 118.436,258.755 120.762,256.932 122.406 C 255.109 124.051,251.581 127.388,249.093 129.823 C 243.391 135.403,240.827 137.576,237.551 139.603 C 236.836 140.046,235.772 140.800,235.188 141.278 C 231.949 143.928,227.642 144.713,222.419 143.605 C 221.779 143.469,221.216 143.417,221.169 143.489 C 221.122 143.562,217.971 143.070,214.167 142.397 C 207.644 141.244,180.958 136.757,170.750 135.098 C 166.448 134.399,164.199 134.034,154.167 132.406 C 107.146 124.774,93.611 122.485,79.750 119.821 C 73.393 118.599,67.215 117.306,61.083 115.914 C 53.239 114.133,49.585 113.778,46.924 114.537 C 46.378 114.692,45.915 114.804,45.895 114.784 C 45.726 114.615,51.640 110.876,55.833 108.500 C 61.224 105.445,62.529 104.630,69.762 99.796 C 83.591 90.552,95.929 82.603,96.194 82.767 C 96.304 82.835,96.340 82.812,96.277 82.711 C 96.218 82.615,96.635 82.238,97.210 81.869 C 97.782 81.501,102.487 78.468,107.667 75.128 C 112.846 71.788,117.386 68.865,117.755 68.632 L 118.427 68.209 121.882 68.786 L 125.336 69.363 130.043 66.378 C 139.830 60.171,145.925 56.457,167.667 43.454 C 183.611 33.918,189.208 30.507,197.250 25.421 C 199.450 24.030,202.133 22.384,203.213 21.764 C 204.292 21.143,206.267 19.930,207.602 19.069 C 209.742 17.686,210.159 17.481,211.139 17.321 C 213.909 16.870,218.472 16.742,222.417 17.005 M335.479 59.528 C 333.464 66.000,335.166 74.159,339.418 78.411 L 340.313 79.305 339.747 80.031 C 338.788 81.262,336.879 82.834,332.500 85.997 C 330.804 87.222,328.179 89.277,326.667 90.564 C 321.662 94.822,320.956 95.410,315.917 99.503 C 310.451 103.944,308.041 105.956,301.250 111.751 C 295.370 116.768,290.716 120.632,286.500 123.996 C 279.313 129.730,271.160 137.038,261.500 146.404 C 257.173 150.599,250.731 156.707,247.417 159.757 C 241.404 165.290,236.043 169.834,230.847 173.801 C 229.052 175.171,228.650 175.261,227.244 174.606 C 224.641 173.394,222.718 168.857,221.690 161.500 C 221.148 157.615,221.748 152.551,223.300 147.926 L 223.750 146.583 224.333 146.597 C 224.654 146.604,225.329 146.622,225.833 146.636 C 234.609 146.878,236.523 145.895,245.345 136.615 C 247.366 134.489,250.759 131.109,252.885 129.103 C 255.011 127.098,257.350 124.882,258.083 124.180 C 262.052 120.379,272.855 110.403,277.667 106.094 C 279.087 104.822,280.587 103.472,281.000 103.093 C 281.412 102.715,282.987 101.322,284.500 99.998 C 286.012 98.674,287.287 97.549,287.333 97.497 C 287.482 97.330,294.174 91.626,296.887 89.352 C 300.699 86.159,305.332 82.500,311.575 77.750 C 314.587 75.458,317.696 73.014,318.484 72.319 C 319.272 71.624,321.417 69.879,323.250 68.442 C 328.516 64.314,329.327 63.660,330.792 62.366 C 331.550 61.696,332.448 61.032,332.787 60.890 C 333.126 60.749,333.922 60.153,334.555 59.566 C 335.189 58.980,335.728 58.500,335.753 58.500 C 335.778 58.500,335.654 58.962,335.479 59.528 M90.833 84.420 C 90.833 84.468,90.327 84.830,89.708 85.226 C 84.790 88.371,79.407 91.860,75.790 94.248 C 73.429 95.808,70.616 97.657,69.540 98.359 C 68.464 99.061,66.655 100.240,65.521 100.981 C 63.162 102.520,63.383 102.513,62.676 101.076 C 61.173 98.025,62.516 94.954,65.877 93.752 C 66.357 93.581,66.825 93.348,66.917 93.234 C 67.008 93.121,67.421 92.915,67.833 92.778 C 69.256 92.303,75.591 90.032,78.583 88.925 C 83.459 87.120,87.304 85.682,89.083 84.996 C 91.027 84.248,90.833 84.312,90.833 84.420 M57.283 117.080 C 58.572 117.306,60.967 117.837,62.605 118.259 C 71.242 120.485,74.231 121.184,77.417 121.723 C 94.989 124.695,107.425 127.009,130.417 131.587 C 157.128 136.905,183.736 141.277,212.000 144.991 C 215.803 145.491,222.552 146.330,222.784 146.332 C 222.895 146.333,222.571 146.910,222.065 147.616 C 217.480 154.007,217.301 163.795,221.614 172.200 C 222.480 173.887,223.759 175.639,224.520 176.181 C 226.560 177.633,219.371 176.880,210.833 174.747 C 205.005 173.290,192.477 170.949,183.667 169.669 C 175.728 168.516,170.057 167.481,153.083 164.087 C 146.025 162.676,138.525 161.213,136.417 160.837 C 128.181 159.368,122.075 158.201,109.292 155.651 C 84.998 150.805,80.451 150.048,71.833 149.413 C 62.061 148.693,57.594 147.785,54.437 145.876 C 53.289 145.181,52.900 145.162,51.667 145.736 C 50.452 146.302,50.557 146.346,49.417 144.795 C 46.428 140.729,45.376 137.976,45.071 133.417 C 44.740 128.476,46.003 124.983,50.458 118.519 L 51.881 116.454 53.410 116.562 C 54.251 116.621,55.994 116.854,57.283 117.080 M370.343 132.476 C 374.198 138.281,374.484 145.238,371.142 151.917 C 370.072 154.055,370.227 153.946,368.770 153.583 C 367.360 153.232,367.652 153.126,365.625 154.721 C 362.845 156.907,359.106 158.262,348.520 160.919 C 341.665 162.639,333.991 165.316,315.417 172.466 C 303.577 177.024,297.092 179.462,291.833 181.331 C 287.903 182.728,281.347 185.194,272.333 188.665 C 259.503 193.606,254.155 195.559,245.417 198.495 C 231.919 203.030,224.491 205.756,218.846 208.245 C 212.069 211.233,208.210 212.500,205.884 212.500 L 205.305 212.500 205.882 211.708 C 207.178 209.931,208.068 207.561,208.701 204.199 C 209.310 200.964,209.175 194.285,208.482 193.404 C 208.294 193.165,207.624 190.987,207.712 190.899 C 207.749 190.862,207.917 191.300,208.085 191.874 C 208.506 193.313,208.432 193.304,210.257 192.154 C 212.006 191.052,216.858 188.154,219.555 186.601 L 221.194 185.658 223.555 185.944 C 224.854 186.101,226.142 186.218,226.417 186.204 C 226.692 186.190,228.079 186.155,229.500 186.126 C 234.737 186.020,237.384 184.405,244.529 176.956 C 250.460 170.773,249.518 171.503,254.017 169.601 C 261.049 166.627,274.526 161.257,279.583 159.414 C 280.408 159.114,282.096 158.495,283.333 158.039 C 288.875 155.998,294.671 153.934,305.708 150.069 C 306.602 149.756,308.065 149.244,308.958 148.930 C 309.852 148.617,311.446 148.060,312.500 147.693 C 322.679 144.145,321.941 144.413,328.417 141.919 C 351.332 133.096,361.445 131.847,370.833 136.684 C 371.613 137.085,372.308 137.440,372.379 137.472 C 372.601 137.573,371.537 134.845,370.907 133.698 C 370.152 132.325,369.135 130.897,367.916 129.500 L 366.970 128.417 368.084 129.583 C 368.696 130.225,369.713 131.527,370.343 132.476 M355.417 140.115 C 351.179 140.492,345.647 142.055,338.018 145.030 C 328.403 148.779,326.181 149.607,311.417 154.940 C 308.758 155.900,305.908 156.940,305.083 157.250 C 304.258 157.561,302.158 158.337,300.417 158.974 C 298.675 159.612,293.837 161.441,289.667 163.039 C 285.496 164.638,280.321 166.608,278.167 167.419 C 274.707 168.720,262.268 173.493,256.000 175.924 C 253.961 176.714,249.799 178.441,245.956 180.091 C 245.153 180.436,244.519 180.742,244.548 180.770 C 244.602 180.824,245.506 180.475,253.667 177.246 C 258.798 175.216,265.840 172.508,270.500 170.774 C 278.844 167.668,281.136 166.827,285.417 165.299 C 297.256 161.073,302.163 159.383,315.083 155.083 C 321.861 152.827,328.805 150.387,332.750 148.876 C 342.739 145.049,344.675 144.346,349.083 142.949 C 352.867 141.750,358.724 140.333,359.900 140.333 C 360.127 140.333,360.360 140.258,360.417 140.167 C 360.515 140.007,357.033 139.972,355.417 140.115 M280.598 153.142 C 280.377 153.501,274.618 158.595,274.288 158.724 C 273.573 159.004,270.730 160.037,268.500 160.827 C 266.587 161.506,262.846 162.838,257.917 164.598 L 256.750 165.014 257.751 164.049 C 263.380 158.619,262.336 159.281,268.667 157.126 C 276.450 154.478,280.219 153.170,280.298 153.091 C 280.445 152.944,280.694 152.987,280.598 153.142 M136.750 172.324 C 142.870 173.475,153.203 175.370,157.167 176.068 C 165.891 177.605,170.411 178.366,178.559 179.668 L 181.535 180.144 183.726 181.520 C 189.890 185.391,197.889 190.700,203.672 194.758 L 204.928 195.639 205.339 195.327 C 205.908 194.895,205.956 195.170,205.979 199.000 C 206.026 206.863,204.240 211.500,201.166 211.500 C 199.557 211.500,186.287 203.581,173.465 194.969 C 154.672 182.346,151.884 180.500,151.613 180.500 C 151.448 180.500,151.348 180.444,151.390 180.375 C 151.432 180.306,151.155 180.242,150.775 180.232 C 150.395 180.222,149.099 180.026,147.896 179.795 L 145.709 179.377 141.563 176.800 C 139.283 175.383,136.667 173.786,135.750 173.250 C 134.833 172.715,133.858 172.135,133.583 171.962 L 133.083 171.647 133.583 171.735 C 133.858 171.783,135.283 172.048,136.750 172.324 M186.417 180.909 C 187.333 181.040,189.883 181.415,192.083 181.743 C 194.283 182.071,196.908 182.450,197.917 182.585 C 200.890 182.983,200.931 183.001,199.777 183.360 C 199.144 183.557,198.706 183.610,198.526 183.514 C 198.341 183.415,197.853 183.494,197.062 183.752 C 195.020 184.417,192.350 184.383,190.167 183.662 C 188.197 183.012,183.085 180.313,184.333 180.582 C 184.563 180.632,185.500 180.779,186.417 180.909 M203.613 184.042 C 204.874 185.232,207.167 188.640,207.167 189.325 C 207.167 189.433,204.537 189.103,204.440 188.982 C 204.411 188.946,204.181 188.392,203.930 187.750 C 203.678 187.108,203.074 185.815,202.586 184.875 L 201.700 183.167 202.194 183.167 C 202.560 183.167,202.925 183.392,203.613 184.042 M236.917 190.594 C 234.900 191.455,233.025 192.273,232.750 192.412 C 232.475 192.551,229.931 193.684,227.097 194.930 C 224.262 196.177,221.487 197.405,220.930 197.660 C 220.373 197.915,219.521 198.293,219.037 198.501 C 217.176 199.300,218.403 198.944,221.261 197.855 C 227.078 195.640,241.728 189.002,240.750 189.025 C 240.658 189.028,238.933 189.734,236.917 190.594 M179.226 217.961 C 179.328 218.126,182.468 218.588,182.598 218.457 C 182.637 218.419,182.012 218.294,181.209 218.180 C 180.407 218.067,179.609 217.934,179.437 217.886 C 179.257 217.835,179.168 217.867,179.226 217.961 " stroke="none" fill="#c54e4d" fill-rule="evenodd"></path><path id="path1" d="M118.083 68.415 C 117.362 68.894,100.613 79.693,98.447 81.074 C 97.180 81.882,96.205 82.598,96.280 82.665 C 96.457 82.822,100.935 83.353,102.388 83.389 L 103.508 83.417 114.407 76.417 C 120.402 72.567,125.292 69.403,125.273 69.384 C 125.255 69.366,123.855 69.122,122.162 68.841 C 120.469 68.560,118.933 68.300,118.750 68.262 C 118.567 68.224,118.267 68.293,118.083 68.415 M337.103 69.075 C 337.145 69.185,338.508 69.639,340.132 70.084 C 341.755 70.530,344.441 71.312,346.100 71.822 L 349.116 72.750 349.977 73.693 C 351.952 75.854,352.119 78.424,350.505 81.760 C 348.543 85.814,340.697 94.024,331.083 102.086 C 329.892 103.085,328.672 104.125,328.374 104.396 L 327.831 104.889 330.291 105.952 C 331.643 106.537,332.975 107.119,333.250 107.244 C 333.525 107.369,334.165 107.654,334.673 107.878 L 335.595 108.283 336.107 107.889 L 336.619 107.494 338.351 108.241 C 339.304 108.651,342.030 109.843,344.409 110.889 L 348.735 112.790 350.528 111.233 C 351.515 110.377,352.531 109.627,352.786 109.568 C 353.041 109.508,353.625 109.111,354.083 108.686 C 354.542 108.261,355.231 107.622,355.615 107.266 L 356.314 106.618 355.834 108.110 C 355.259 109.897,354.797 112.871,354.866 114.331 L 354.917 115.387 356.000 115.847 L 357.083 116.307 357.174 113.362 C 357.256 110.719,357.332 110.126,357.917 107.583 L 358.569 104.750 363.008 100.333 C 371.995 91.392,374.250 88.014,374.250 83.500 C 374.250 81.037,372.800 78.265,371.275 77.810 C 371.078 77.751,369.717 77.315,368.250 76.841 C 362.071 74.844,352.325 72.220,345.083 70.604 C 339.197 69.291,337.026 68.875,337.103 69.075 M156.500 77.288 C 152.645 80.238,144.772 86.285,143.627 87.174 L 142.671 87.917 144.627 88.204 C 147.336 88.603,150.710 89.128,153.083 89.519 C 154.183 89.701,155.571 89.927,156.167 90.021 C 160.086 90.642,168.778 92.233,176.167 93.683 C 183.855 95.192,193.372 97.179,198.083 98.258 C 198.633 98.384,200.471 98.791,202.167 99.161 C 203.862 99.532,207.275 100.285,209.750 100.835 C 215.994 102.222,229.443 105.179,230.250 105.343 C 230.617 105.417,232.342 105.787,234.083 106.166 C 235.825 106.545,237.588 106.922,238.000 107.004 C 238.412 107.086,240.588 107.533,242.833 107.997 C 249.086 109.290,255.672 110.602,260.000 111.415 C 262.154 111.820,264.695 112.305,265.645 112.494 L 267.374 112.836 269.476 110.877 C 270.633 109.799,272.255 108.279,273.081 107.500 C 273.908 106.721,276.271 104.554,278.334 102.686 C 280.396 100.817,282.262 99.118,282.480 98.910 L 282.876 98.533 281.980 98.356 C 281.487 98.259,277.858 97.543,273.917 96.766 C 267.672 95.534,260.810 94.185,245.833 91.247 C 242.554 90.603,231.285 88.423,225.167 87.249 C 218.665 86.001,199.686 82.419,196.083 81.760 C 195.808 81.709,194.758 81.513,193.750 81.323 C 192.742 81.133,191.542 80.912,191.083 80.831 C 190.625 80.750,189.200 80.490,187.917 80.253 C 182.754 79.299,173.306 77.585,170.917 77.170 C 170.458 77.090,169.183 76.865,168.083 76.670 C 166.983 76.474,164.629 76.056,162.852 75.740 C 161.075 75.425,159.537 75.170,159.435 75.175 C 159.333 75.179,158.012 76.130,156.500 77.288 M280.298 153.091 C 280.219 153.170,276.450 154.478,268.667 157.126 C 262.336 159.281,263.380 158.619,257.751 164.049 L 256.750 165.014 257.917 164.598 C 262.846 162.838,266.587 161.506,268.500 160.827 C 270.730 160.037,273.573 159.004,274.288 158.724 C 274.618 158.595,280.377 153.501,280.598 153.142 C 280.694 152.987,280.445 152.944,280.298 153.091 M45.167 155.698 C 40.946 158.549,31.948 164.134,28.580 165.992 C 27.207 166.750,25.258 167.824,24.250 168.380 C 16.309 172.757,13.300 176.478,10.339 185.583 C 6.312 197.967,8.990 208.193,18.022 214.923 C 20.045 216.431,21.391 217.205,21.879 217.141 C 22.088 217.113,22.482 217.248,22.755 217.440 C 23.713 218.117,24.631 218.483,27.096 219.175 L 29.583 219.873 33.167 219.921 C 37.249 219.975,37.795 220.072,45.417 222.107 C 53.055 224.146,53.978 224.341,64.250 226.098 C 81.804 229.101,99.167 232.340,116.500 235.848 C 119.487 236.452,134.873 239.427,137.000 239.811 C 137.504 239.902,139.342 240.241,141.083 240.563 C 165.056 245.005,193.955 249.461,219.583 252.669 C 230.979 254.096,230.342 254.032,230.728 253.788 C 230.973 253.634,231.290 253.604,231.750 253.689 C 238.315 254.917,242.037 252.630,254.590 239.657 C 256.236 237.955,258.410 235.780,259.420 234.823 C 268.823 225.913,280.240 215.274,285.431 210.583 C 285.532 210.492,286.320 209.770,287.183 208.980 C 293.220 203.445,304.203 193.875,311.250 188.008 C 313.817 185.871,315.991 184.055,316.082 183.971 C 316.173 183.888,315.948 183.926,315.582 184.056 C 313.875 184.663,304.409 188.228,299.917 189.955 C 297.167 191.013,292.254 192.877,289.000 194.097 L 283.083 196.317 279.500 199.690 C 277.529 201.546,271.904 206.900,267.000 211.588 C 251.182 226.709,244.076 233.001,235.232 239.720 C 232.862 241.520,231.301 241.422,229.486 239.361 C 225.976 235.376,223.647 223.838,224.930 216.792 C 225.065 216.048,225.180 216.063,223.467 216.601 C 221.679 217.163,221.754 217.077,221.404 218.963 C 220.010 226.473,223.160 237.943,227.775 242.161 L 228.667 242.976 227.716 243.095 C 224.883 243.449,220.381 242.765,212.417 240.773 C 205.261 238.983,190.498 236.254,178.917 234.580 C 171.343 233.486,163.213 231.991,146.750 228.668 C 134.167 226.128,131.035 225.529,119.750 223.502 C 116.633 222.942,106.771 221.027,97.833 219.247 C 77.562 215.210,71.365 214.038,63.953 212.841 C 59.954 212.195,59.063 212.098,52.417 211.588 C 41.014 210.713,35.880 209.698,32.458 207.641 C 30.855 206.678,30.382 206.636,29.000 207.333 C 27.662 208.009,27.749 208.048,26.300 206.120 C 23.034 201.777,21.892 198.896,21.474 193.947 C 20.941 187.637,22.316 183.504,27.348 176.292 L 29.179 173.667 30.214 173.669 C 32.951 173.676,38.042 174.684,45.833 176.763 C 52.386 178.511,54.646 179.011,60.417 179.994 C 78.447 183.064,95.342 186.188,114.917 190.070 C 130.277 193.117,143.463 195.620,151.417 196.999 C 157.872 198.119,160.241 198.503,160.384 198.455 C 160.967 198.261,136.485 183.051,124.000 175.852 C 122.854 175.191,122.104 174.692,122.333 174.744 C 123.398 174.983,127.738 175.833,127.896 175.833 C 128.194 175.833,126.508 174.853,120.052 171.271 C 113.456 167.612,113.363 167.573,110.000 167.087 C 109.771 167.054,108.646 166.831,107.500 166.592 C 103.344 165.723,93.209 163.871,83.333 162.176 C 72.614 160.336,73.961 160.626,63.000 157.800 L 59.083 156.791 55.500 156.666 C 51.650 156.532,49.765 156.188,47.688 155.241 C 46.547 154.721,46.637 154.705,45.167 155.698 M41.917 169.172 C 42.558 169.270,46.008 169.830,49.583 170.417 C 53.158 171.003,57.246 171.672,58.667 171.903 C 63.617 172.706,78.934 175.191,81.333 175.580 C 82.662 175.796,86.825 176.469,90.583 177.077 C 94.342 177.684,99.460 178.515,101.958 178.924 C 113.300 180.779,116.031 181.224,122.833 182.325 C 126.821 182.970,131.696 183.761,133.667 184.082 C 135.637 184.403,137.362 184.672,137.500 184.679 C 137.646 184.687,137.670 184.726,137.558 184.772 C 137.386 184.842,126.305 183.511,117.917 182.412 C 99.297 179.974,88.264 178.428,77.500 176.750 C 59.014 173.869,46.864 171.457,41.724 169.650 C 40.048 169.061,39.472 168.770,40.250 168.906 C 40.525 168.955,41.275 169.074,41.917 169.172 M133.583 171.966 C 133.858 172.137,135.021 172.829,136.167 173.504 C 137.313 174.179,139.973 175.804,142.080 177.116 C 144.186 178.427,146.042 179.500,146.204 179.500 C 146.462 179.500,150.202 180.180,151.333 180.433 C 151.895 180.559,151.317 180.172,146.750 177.366 C 138.866 172.521,139.221 172.674,133.750 171.765 L 133.083 171.655 133.583 171.966 M184.833 181.085 C 189.248 183.940,193.585 184.885,197.062 183.752 C 197.853 183.494,198.341 183.415,198.526 183.514 C 198.706 183.610,199.144 183.557,199.777 183.360 C 200.931 183.001,200.890 182.983,197.917 182.585 C 196.908 182.450,194.283 182.071,192.083 181.743 C 189.883 181.415,187.333 181.040,186.417 180.909 C 185.500 180.779,184.563 180.632,184.333 180.582 C 184.060 180.523,184.232 180.696,184.833 181.085 M202.586 184.875 C 203.074 185.815,203.678 187.108,203.930 187.750 C 204.181 188.392,204.411 188.946,204.440 188.982 C 204.537 189.103,207.167 189.433,207.167 189.325 C 207.167 188.022,203.246 183.167,202.194 183.167 L 201.700 183.167 202.586 184.875 M207.683 190.891 C 207.657 191.118,208.365 193.358,208.439 193.283 C 208.477 193.245,208.326 192.660,208.104 191.982 C 207.881 191.305,207.692 190.813,207.683 190.891 M181.649 212.467 C 181.926 212.690,182.542 212.847,183.668 212.984 C 184.559 213.092,185.579 213.219,185.936 213.266 C 187.570 213.482,185.650 212.872,183.833 212.599 C 182.779 212.440,181.767 212.273,181.583 212.228 C 181.291 212.156,181.299 212.185,181.649 212.467 " stroke="none" fill="#3c4d81" fill-rule="evenodd"></path><path id="path2" d="M93.833 84.038 C 92.688 84.779,89.425 86.884,86.583 88.716 C 83.742 90.548,76.992 94.988,71.583 98.581 C 66.175 102.174,60.962 105.567,60.000 106.120 C 59.038 106.673,56.900 107.897,55.250 108.839 C 51.069 111.227,45.731 114.619,45.895 114.784 C 45.915 114.804,46.378 114.692,46.924 114.537 C 49.585 113.778,53.239 114.133,61.083 115.914 C 67.215 117.306,73.393 118.599,79.750 119.821 C 93.611 122.485,107.146 124.774,154.167 132.406 C 164.199 134.034,166.448 134.399,170.750 135.098 C 180.958 136.757,207.644 141.244,214.167 142.397 C 217.971 143.070,221.122 143.562,221.169 143.489 C 221.216 143.417,221.779 143.469,222.419 143.605 C 227.642 144.713,231.949 143.928,235.188 141.278 C 235.772 140.800,236.836 140.046,237.551 139.603 C 240.825 137.577,243.390 135.403,249.083 129.833 C 251.566 127.404,254.719 124.407,256.090 123.173 C 262.073 117.789,267.178 112.987,267.083 112.833 C 267.041 112.765,266.612 112.660,266.129 112.597 C 265.645 112.535,264.500 112.341,263.583 112.167 C 262.667 111.993,260.679 111.617,259.167 111.331 C 250.155 109.630,240.854 107.708,225.750 104.427 C 218.848 102.928,216.512 102.413,207.083 100.313 C 204.975 99.843,202.987 99.402,202.667 99.333 C 202.346 99.264,199.796 98.705,197.000 98.092 C 188.630 96.255,180.678 94.612,174.000 93.341 C 172.029 92.965,170.079 92.586,169.667 92.497 C 168.867 92.326,167.042 91.994,161.833 91.074 C 159.003 90.574,156.727 90.193,149.917 89.082 C 148.254 88.810,142.817 88.004,142.633 88.002 C 142.310 87.997,133.951 94.857,117.333 108.763 C 115.362 110.412,112.239 112.979,110.393 114.466 L 107.037 117.171 106.227 117.011 C 105.781 116.924,104.104 116.618,102.500 116.331 C 93.277 114.686,85.180 113.056,76.833 111.165 C 68.319 109.237,64.866 108.940,62.431 109.927 C 60.338 110.776,66.750 106.710,73.750 102.749 C 75.492 101.764,81.004 98.242,86.000 94.923 C 90.996 91.604,96.866 87.737,99.046 86.331 C 101.225 84.925,102.950 83.723,102.879 83.660 C 102.808 83.596,101.362 83.381,99.667 83.182 C 97.971 82.983,96.433 82.791,96.250 82.756 C 96.041 82.716,95.140 83.194,93.833 84.038 M89.083 84.996 C 87.304 85.682,83.459 87.120,78.583 88.925 C 75.591 90.032,69.256 92.303,67.833 92.778 C 67.421 92.915,67.008 93.121,66.917 93.234 C 66.825 93.348,66.357 93.581,65.877 93.752 C 62.516 94.954,61.173 98.025,62.676 101.076 C 63.383 102.513,63.162 102.520,65.521 100.981 C 66.655 100.240,68.464 99.061,69.540 98.359 C 70.616 97.657,73.429 95.808,75.790 94.248 C 79.407 91.860,84.790 88.371,89.708 85.226 C 90.327 84.830,90.833 84.468,90.833 84.420 C 90.833 84.312,91.027 84.248,89.083 84.996 M334.421 109.371 C 332.758 110.776,326.239 115.828,320.417 120.224 C 317.667 122.301,314.256 124.881,312.837 125.958 C 310.255 127.919,303.970 132.889,303.500 133.342 C 303.362 133.475,302.350 134.330,301.250 135.243 C 295.779 139.784,281.266 152.488,281.398 152.620 C 281.419 152.641,282.969 152.131,284.843 151.487 C 286.717 150.843,288.662 150.177,289.167 150.007 C 289.671 149.836,291.921 149.062,294.167 148.285 C 296.412 147.509,298.737 146.707,299.333 146.503 C 299.929 146.299,301.129 145.883,302.000 145.578 C 302.871 145.273,304.708 144.638,306.083 144.167 C 307.458 143.695,309.333 143.047,310.250 142.727 C 311.167 142.406,312.742 141.856,313.750 141.503 C 332.276 135.024,346.462 129.695,356.333 125.506 C 361.788 123.191,365.605 122.190,368.167 122.401 L 369.250 122.490 367.833 121.808 C 365.666 120.764,362.821 119.618,358.667 118.113 C 352.307 115.811,351.540 115.503,346.583 113.255 C 345.025 112.548,342.850 111.575,341.750 111.092 C 340.650 110.609,339.375 110.042,338.917 109.833 C 338.458 109.624,337.521 109.213,336.833 108.921 L 335.583 108.389 334.421 109.371 M365.750 124.824 L 365.083 124.933 366.029 125.369 C 371.844 128.045,376.157 135.861,376.447 144.250 C 376.697 151.485,374.351 155.812,370.167 155.832 C 368.607 155.840,356.436 159.345,347.667 162.312 C 337.911 165.613,331.717 167.990,306.250 178.208 C 294.409 182.959,290.721 184.364,274.667 190.247 C 273.246 190.768,269.458 192.132,266.250 193.279 C 263.042 194.425,258.579 196.024,256.333 196.831 C 251.151 198.694,246.101 200.503,242.167 201.906 C 237.251 203.660,235.044 204.564,230.250 206.788 C 210.173 216.100,205.871 216.795,197.096 212.139 C 187.442 207.016,180.397 202.618,160.167 189.088 C 143.803 178.143,146.223 179.490,141.146 178.502 C 138.820 178.050,135.229 177.340,133.167 176.925 C 131.104 176.510,129.308 176.170,129.174 176.169 C 129.041 176.168,130.353 176.998,132.091 178.015 C 140.241 182.783,143.626 184.929,160.903 196.276 C 163.019 197.666,166.475 199.912,168.583 201.268 C 174.223 204.895,177.608 207.139,182.060 210.204 L 186.036 212.942 189.599 213.512 C 193.767 214.180,194.025 214.355,190.069 213.831 C 188.552 213.631,187.279 213.499,187.239 213.539 C 187.128 213.650,190.699 215.637,192.231 216.316 C 192.981 216.648,194.005 217.191,194.506 217.522 C 198.755 220.329,205.887 220.632,210.403 218.195 C 211.678 217.508,215.430 216.134,229.833 211.079 C 236.066 208.891,240.412 207.382,249.250 204.333 C 250.625 203.859,252.800 203.109,254.083 202.665 C 257.665 201.429,262.049 199.927,266.016 198.579 C 267.996 197.906,270.696 196.982,272.016 196.525 C 273.336 196.068,274.867 195.542,275.417 195.356 C 277.464 194.662,282.418 192.969,287.917 191.083 C 291.033 190.015,295.083 188.629,296.917 188.003 C 298.750 187.377,301.262 186.514,302.500 186.086 C 303.737 185.658,305.837 184.933,307.167 184.475 C 308.496 184.017,310.296 183.391,311.167 183.083 C 312.037 182.775,314.475 181.924,316.583 181.192 C 337.867 173.797,360.333 165.341,360.333 164.725 C 360.333 164.605,360.540 164.457,360.792 164.397 C 362.535 163.979,363.761 163.573,366.250 162.588 C 367.808 161.972,369.721 161.280,370.500 161.052 C 373.722 160.109,375.167 159.618,375.167 159.467 C 375.167 159.379,375.606 158.769,376.143 158.112 C 382.124 150.790,383.184 144.335,379.799 135.857 C 377.625 130.412,375.434 126.513,374.026 125.581 C 372.854 124.805,368.360 124.394,365.750 124.824 " stroke="none" fill="#f0cc4d" fill-rule="evenodd"></path><path id="path3" d="M0.000 131.417 L 0.000 262.833 200.000 262.833 L 400.000 262.833 400.000 131.417 L 400.000 0.000 200.000 0.000 L 0.000 0.000 0.000 131.417 M219.500 10.744 C 225.970 11.308,230.881 11.974,239.917 13.513 C 256.087 16.266,257.218 16.439,268.333 17.844 C 284.188 19.848,288.125 20.371,296.417 21.573 C 305.208 22.848,314.222 24.444,322.784 26.241 C 331.098 27.986,341.101 30.640,347.734 32.860 C 350.047 33.635,351.458 35.426,351.623 37.798 C 351.896 41.706,348.694 46.297,339.681 54.922 L 337.945 56.583 337.354 59.000 C 336.449 62.695,336.466 68.707,337.382 68.913 C 337.585 68.959,339.362 69.338,341.333 69.755 C 351.375 71.880,363.905 75.227,370.775 77.618 C 372.788 78.318,374.389 80.934,374.375 83.500 C 374.351 87.881,372.028 91.340,363.162 100.198 C 360.714 102.644,358.661 104.775,358.600 104.934 C 357.965 106.589,357.167 111.494,357.167 113.743 L 357.167 116.158 357.625 116.394 C 358.430 116.809,362.811 118.448,366.167 119.590 C 373.897 122.221,376.756 124.392,380.352 130.364 C 386.095 139.900,386.444 148.918,381.343 156.028 C 380.072 157.801,376.845 161.000,376.329 161.000 C 376.130 161.000,375.619 161.310,375.192 161.689 C 373.510 163.182,369.962 164.544,366.306 165.099 C 364.199 165.419,362.996 165.878,356.417 168.870 C 351.747 170.993,349.976 171.716,346.167 173.054 C 344.471 173.650,342.671 174.288,342.167 174.473 C 341.662 174.657,339.412 175.461,337.167 176.259 C 334.921 177.056,329.320 179.082,324.720 180.760 L 316.357 183.812 314.720 185.141 C 308.881 189.882,294.563 202.257,289.417 207.010 C 288.958 207.434,286.521 209.655,284.000 211.946 C 279.148 216.356,270.802 224.100,266.086 228.568 C 264.529 230.043,262.429 232.026,261.419 232.974 C 260.410 233.922,256.396 237.910,252.500 241.835 C 241.775 252.641,238.706 254.488,232.604 253.808 C 231.534 253.689,230.997 253.696,230.664 253.834 C 230.307 253.982,229.702 253.964,227.976 253.752 C 221.355 252.940,218.948 252.642,216.000 252.266 C 214.213 252.039,212.450 251.809,212.083 251.757 C 211.717 251.704,209.167 251.360,206.417 250.992 C 199.600 250.080,189.296 248.598,182.833 247.600 C 181.963 247.466,180.012 247.165,178.500 246.931 C 171.951 245.920,160.005 243.951,153.167 242.756 C 151.837 242.524,149.700 242.150,148.417 241.926 C 140.511 240.546,128.451 238.256,115.575 235.689 C 101.292 232.841,91.151 230.907,78.750 228.666 C 74.472 227.893,68.059 226.771,62.083 225.750 C 55.157 224.568,54.859 224.512,52.583 223.972 C 51.392 223.690,48.504 222.952,46.167 222.333 C 42.003 221.231,38.160 220.289,37.000 220.086 C 36.679 220.030,34.879 219.963,33.000 219.937 C 29.451 219.888,29.046 219.823,25.250 218.696 C 24.568 218.493,22.716 217.548,22.585 217.335 C 22.526 217.241,22.277 217.177,22.031 217.194 C 21.223 217.251,18.523 215.533,16.145 213.450 C 7.201 205.613,6.048 192.903,13.016 178.951 C 15.398 174.181,18.497 171.425,26.083 167.332 C 30.608 164.891,34.302 162.660,42.625 157.345 C 44.249 156.308,44.190 156.516,43.192 155.356 C 42.145 154.139,41.334 152.976,40.736 151.833 C 40.473 151.329,39.740 150.356,39.109 149.671 C 33.353 143.423,32.322 134.928,36.108 124.945 C 38.871 117.660,40.985 115.434,49.583 110.758 C 51.233 109.860,54.102 108.190,55.958 107.047 L 59.333 104.967 59.333 104.340 C 59.333 103.981,59.538 103.307,59.814 102.760 L 60.295 101.807 59.916 101.112 C 58.817 99.094,58.688 96.726,59.596 95.256 C 59.864 94.823,60.187 94.258,60.314 94.002 C 60.682 93.258,70.675 88.336,79.167 84.717 C 86.044 81.785,94.990 78.404,103.160 75.649 C 104.896 75.064,106.408 74.443,106.910 74.110 C 108.436 73.098,126.812 61.290,132.458 57.694 C 149.251 46.998,155.880 43.023,172.667 33.585 C 184.776 26.777,189.071 24.285,189.819 23.633 C 190.780 22.797,194.697 20.206,197.333 18.663 C 198.479 17.993,200.504 16.717,201.833 15.829 C 209.021 11.028,212.213 10.109,219.500 10.744 M334.500 59.655 C 333.813 60.287,333.062 60.843,332.832 60.890 C 332.602 60.937,332.002 61.355,331.499 61.820 C 330.632 62.619,328.023 64.727,322.167 69.358 C 320.746 70.482,319.324 71.630,319.007 71.909 C 318.691 72.188,318.091 72.719,317.674 73.089 C 317.257 73.459,316.481 74.091,315.948 74.492 C 315.415 74.894,314.489 75.771,313.890 76.441 C 312.939 77.503,305.375 84.927,299.914 90.158 C 293.717 96.094,282.874 106.021,271.333 116.324 C 269.454 118.001,267.616 119.646,267.249 119.979 C 266.881 120.311,265.906 121.187,265.082 121.925 C 251.776 133.837,244.287 140.666,237.672 146.917 C 233.631 150.736,232.580 151.758,227.387 156.917 L 221.850 162.417 222.074 163.769 C 223.536 172.562,226.979 176.719,230.540 173.989 C 232.062 172.821,235.036 170.475,235.167 170.337 C 235.213 170.289,235.850 169.764,236.583 169.171 C 238.329 167.758,243.687 163.146,244.333 162.500 C 244.379 162.454,245.204 161.704,246.167 160.833 C 247.129 159.962,247.955 159.212,248.002 159.167 C 248.048 159.121,248.648 158.558,249.335 157.916 C 251.691 155.712,256.743 150.915,259.079 148.663 C 260.365 147.423,262.165 145.698,263.081 144.829 C 263.996 143.961,264.783 143.212,264.831 143.167 C 272.720 135.536,280.052 129.039,286.988 123.533 C 290.947 120.390,298.141 114.409,302.083 110.983 C 304.087 109.242,305.607 107.958,309.188 104.981 C 311.437 103.112,314.389 100.683,315.747 99.583 C 319.563 96.492,325.642 91.428,327.159 90.075 C 328.647 88.748,329.783 87.865,332.083 86.248 C 333.367 85.346,334.454 84.564,334.500 84.511 C 334.546 84.458,335.178 83.972,335.904 83.431 C 337.474 82.263,340.235 79.617,340.146 79.366 C 340.112 79.269,339.708 78.791,339.249 78.303 C 334.986 73.776,333.362 65.666,335.469 59.427 C 335.641 58.917,335.774 58.501,335.766 58.503 C 335.757 58.504,335.188 59.022,334.500 59.655 M354.731 108.153 C 353.975 108.871,353.142 109.508,352.843 109.595 C 352.549 109.680,351.534 110.421,350.587 111.242 L 348.866 112.733 351.711 113.950 C 353.276 114.619,354.619 115.167,354.695 115.167 C 354.771 115.167,354.833 114.567,354.833 113.833 C 354.833 112.234,355.219 109.876,355.759 108.174 C 356.249 106.628,356.332 106.630,354.731 108.153 M58.902 127.330 C 53.378 127.917,48.627 130.619,46.335 134.477 C 45.292 136.233,45.317 137.050,46.502 139.895 C 47.187 141.540,50.215 146.167,50.607 146.167 C 50.646 146.167,51.032 145.988,51.464 145.771 C 52.731 145.132,53.146 145.102,54.000 145.587 C 57.856 147.780,61.637 148.594,71.417 149.334 C 78.152 149.844,80.560 150.155,87.667 151.430 C 92.269 152.256,100.412 153.818,105.583 154.866 C 107.417 155.237,109.442 155.641,110.083 155.762 C 110.725 155.884,112.712 156.282,114.500 156.647 C 116.287 157.012,119.362 157.619,121.333 157.996 C 123.304 158.373,125.629 158.821,126.500 158.992 C 127.371 159.163,129.208 159.502,130.583 159.746 C 136.965 160.879,137.548 160.986,142.833 162.000 C 145.262 162.466,147.925 162.991,148.750 163.168 C 149.575 163.344,150.625 163.556,151.083 163.639 C 151.542 163.721,154.354 164.281,157.333 164.884 C 164.471 166.327,171.647 167.700,174.417 168.151 C 174.967 168.241,176.054 168.424,176.833 168.559 C 177.612 168.693,179.075 168.928,180.083 169.081 C 181.092 169.233,182.292 169.423,182.750 169.503 C 183.208 169.583,183.996 169.696,184.500 169.755 C 185.004 169.813,186.054 169.970,186.833 170.102 C 187.612 170.235,188.925 170.448,189.750 170.577 C 192.507 171.007,195.582 171.562,201.917 172.771 C 206.007 173.552,208.255 174.038,211.083 174.752 C 217.547 176.383,221.659 177.022,223.973 176.753 L 224.956 176.639 224.141 175.876 C 222.320 174.173,219.167 167.706,219.167 165.674 C 219.167 165.402,219.084 165.357,218.708 165.428 C 218.059 165.551,198.636 161.628,191.417 159.917 C 190.867 159.786,188.579 159.259,186.333 158.745 C 184.088 158.231,181.313 157.587,180.167 157.314 C 177.828 156.757,176.399 156.416,173.250 155.667 C 170.566 155.029,155.081 151.159,152.583 150.503 C 151.575 150.238,149.400 149.674,147.750 149.248 C 145.039 148.549,142.161 147.792,138.667 146.859 C 137.979 146.676,136.517 146.289,135.417 145.999 C 132.886 145.333,125.227 143.288,123.250 142.750 C 122.425 142.525,120.362 141.966,118.667 141.506 C 116.971 141.046,114.083 140.263,112.250 139.766 C 104.290 137.607,101.210 136.772,98.000 135.905 C 93.512 134.692,92.941 134.524,88.333 133.052 C 81.478 130.863,80.955 130.700,78.917 130.110 C 70.792 127.760,63.887 126.801,58.902 127.330 M353.000 146.597 C 343.464 147.733,333.676 150.690,308.917 159.916 C 298.738 163.709,276.756 172.391,266.417 176.702 C 259.328 179.658,246.057 186.275,244.675 187.543 C 241.492 190.463,238.242 192.111,235.019 192.442 C 234.194 192.526,233.462 192.775,232.006 193.464 C 224.427 197.053,216.628 200.007,211.163 201.359 L 209.041 201.885 208.929 202.979 C 208.595 206.236,207.262 210.095,205.886 211.792 C 205.232 212.597,205.225 212.594,207.051 212.320 C 209.696 211.923,213.084 210.743,218.500 208.335 C 220.196 207.581,222.333 206.677,223.250 206.326 C 225.691 205.392,228.871 204.203,230.583 203.584 C 231.408 203.285,233.021 202.702,234.167 202.288 C 238.472 200.730,241.381 199.735,245.000 198.583 C 246.967 197.956,252.802 195.942,256.083 194.756 C 258.910 193.735,262.688 192.306,275.333 187.471 C 285.178 183.707,287.661 182.770,290.417 181.777 C 298.440 178.887,301.798 177.631,315.417 172.424 C 326.978 168.004,328.468 167.444,333.583 165.591 C 340.833 162.966,343.821 162.012,347.917 161.011 C 359.253 158.243,363.618 156.587,366.582 153.929 C 367.332 153.257,367.860 153.181,369.000 153.583 C 370.028 153.946,370.020 153.951,370.779 152.542 L 371.475 151.250 370.987 150.645 C 368.183 147.164,361.283 145.611,353.000 146.597 M40.500 169.157 C 42.874 170.547,61.466 174.364,77.000 176.651 C 77.596 176.739,79.396 177.010,81.000 177.252 C 84.956 177.852,88.836 178.421,92.333 178.916 C 93.938 179.143,95.513 179.368,95.833 179.416 C 96.154 179.464,98.629 179.802,101.333 180.166 C 104.037 180.531,106.775 180.904,107.417 180.997 C 109.101 181.240,118.074 182.406,122.792 182.995 C 125.015 183.273,128.632 183.725,130.830 184.000 C 139.432 185.076,137.299 184.688,112.917 180.744 C 110.350 180.329,106.450 179.694,104.250 179.333 C 99.115 178.492,94.585 177.757,85.667 176.320 C 80.981 175.566,75.302 174.639,73.500 174.336 C 71.780 174.046,64.450 172.861,52.833 170.996 C 50.587 170.635,48.337 170.262,47.833 170.167 C 44.034 169.448,40.063 168.901,40.500 169.157 M152.347 180.729 C 152.385 180.763,155.454 182.820,159.167 185.299 C 162.879 187.778,166.817 190.422,167.917 191.175 C 176.168 196.823,185.886 203.125,190.333 205.712 C 199.960 211.312,200.986 211.779,202.293 211.146 C 203.687 210.471,204.848 208.478,205.398 205.815 C 205.681 204.446,206.075 201.350,205.978 201.261 C 205.638 200.950,189.133 190.405,183.083 186.633 L 181.583 185.698 174.417 184.516 C 167.658 183.402,165.753 183.077,160.208 182.094 C 156.531 181.442,155.169 181.195,153.750 180.922 C 152.300 180.644,152.244 180.637,152.347 180.729 M36.271 186.262 C 33.897 186.631,29.896 187.808,30.952 187.827 C 31.280 187.833,33.594 188.198,42.083 189.584 C 43.458 189.809,46.008 190.221,47.750 190.501 C 49.492 190.781,51.817 191.156,52.917 191.333 C 54.017 191.511,56.342 191.886,58.083 192.167 C 59.825 192.447,62.188 192.828,63.333 193.013 C 66.243 193.482,75.987 195.072,79.574 195.664 C 81.220 195.935,82.586 196.136,82.611 196.111 C 82.636 196.086,81.193 195.669,79.405 195.185 C 76.422 194.377,74.538 193.802,68.167 191.754 C 54.698 187.426,47.805 185.983,40.750 186.018 C 39.100 186.026,37.085 186.136,36.271 186.262 M29.008 188.599 C 27.368 189.475,26.189 190.354,24.932 191.640 C 23.800 192.797,23.652 192.647,26.333 193.074 C 28.174 193.367,33.365 194.201,36.250 194.666 C 37.350 194.844,39.450 195.183,40.917 195.419 C 42.383 195.656,45.421 196.147,47.667 196.512 C 49.913 196.877,52.425 197.284,53.250 197.418 C 57.044 198.031,62.103 198.848,64.000 199.153 C 65.146 199.338,67.921 199.787,70.167 200.151 C 72.412 200.515,75.262 200.971,76.500 201.163 C 77.737 201.355,79.087 201.581,79.500 201.665 C 79.912 201.749,81.450 202.008,82.917 202.240 C 85.282 202.615,88.060 203.061,94.917 204.166 C 96.017 204.344,98.754 204.788,101.000 205.153 C 103.246 205.519,106.283 206.011,107.750 206.247 C 109.217 206.484,111.317 206.823,112.417 207.000 C 113.517 207.178,116.067 207.586,118.083 207.908 C 120.100 208.230,122.162 208.570,122.667 208.664 C 123.171 208.758,125.196 209.094,127.167 209.410 C 133.582 210.438,135.054 210.676,137.067 211.009 C 139.587 211.426,139.652 211.354,137.288 210.761 C 135.454 210.302,132.482 209.519,129.667 208.754 C 128.887 208.542,126.337 207.866,124.000 207.250 C 121.662 206.634,118.700 205.845,117.417 205.496 C 116.133 205.146,113.771 204.508,112.167 204.078 C 110.563 203.647,107.938 202.937,106.333 202.500 C 104.729 202.063,103.117 201.659,102.750 201.601 C 102.383 201.543,100.846 201.309,99.333 201.080 C 88.633 199.466,72.304 196.810,63.583 195.267 C 62.300 195.040,60.350 194.696,59.250 194.503 C 55.674 193.874,44.830 191.730,42.250 191.141 C 38.049 190.183,34.365 189.228,32.448 188.601 L 30.312 187.902 29.008 188.599 M22.892 194.205 C 21.508 196.398,21.671 198.087,23.634 201.917 C 24.483 203.571,27.460 207.833,27.767 207.833 C 27.809 207.833,28.272 207.618,28.796 207.354 C 30.243 206.627,30.636 206.586,31.505 207.073 C 34.335 208.660,36.246 209.357,39.667 210.053 C 42.344 210.598,47.293 211.210,50.667 211.415 C 56.419 211.764,60.615 212.224,65.333 213.023 C 75.409 214.728,75.816 214.805,96.000 218.832 C 110.212 221.667,112.657 222.150,115.083 222.601 C 116.548 222.873,116.798 222.918,120.917 223.654 C 128.883 225.078,130.183 225.327,145.417 228.353 C 163.216 231.889,162.984 231.844,167.583 232.657 C 169.692 233.030,171.829 233.408,172.333 233.498 C 172.838 233.588,174.000 233.776,174.917 233.916 C 175.833 234.056,177.033 234.243,177.583 234.332 C 178.133 234.421,179.408 234.612,180.417 234.756 C 182.374 235.035,186.455 235.679,188.917 236.097 C 189.742 236.237,190.867 236.425,191.417 236.514 C 191.967 236.604,193.410 236.863,194.625 237.090 C 195.839 237.317,197.864 237.694,199.125 237.928 C 200.385 238.161,202.129 238.493,203.000 238.664 C 203.871 238.836,205.221 239.097,206.000 239.243 C 207.654 239.555,208.086 239.655,213.500 240.984 C 220.415 242.680,224.753 243.339,227.379 243.093 L 228.676 242.971 228.075 242.494 C 225.838 240.716,223.388 236.069,222.082 231.128 C 221.819 230.132,221.746 230.015,221.434 230.091 C 221.241 230.139,218.683 229.697,215.750 229.109 L 210.417 228.041 208.176 228.701 C 206.862 229.089,205.729 229.331,205.435 229.288 C 205.159 229.248,204.521 229.370,204.009 229.562 C 200.721 230.797,195.795 229.648,191.081 226.546 C 189.645 225.601,189.510 225.549,187.998 225.356 C 187.128 225.245,185.929 225.086,185.333 225.002 C 184.737 224.918,183.313 224.730,182.167 224.585 C 181.021 224.439,179.633 224.251,179.083 224.167 C 178.533 224.082,177.146 223.892,176.000 223.743 C 173.521 223.423,168.388 222.735,166.750 222.504 C 166.108 222.414,163.896 222.112,161.833 221.833 C 159.771 221.554,157.596 221.255,157.000 221.169 C 156.404 221.083,154.492 220.820,152.750 220.586 C 151.008 220.351,149.133 220.087,148.583 219.997 C 148.033 219.908,145.371 219.534,142.667 219.165 C 139.962 218.797,137.300 218.421,136.750 218.331 C 136.200 218.241,132.862 217.755,129.333 217.252 C 125.804 216.748,120.854 216.033,118.333 215.664 C 113.734 214.989,113.303 214.926,109.917 214.421 C 105.771 213.804,95.942 212.308,94.000 212.000 C 92.854 211.818,90.454 211.440,88.667 211.159 C 84.612 210.523,75.884 209.105,73.333 208.668 C 72.279 208.487,69.617 208.034,67.417 207.661 C 65.217 207.288,63.042 206.910,62.583 206.821 C 62.125 206.731,59.285 206.207,56.273 205.656 C 44.877 203.570,36.869 201.779,32.417 200.321 C 30.486 199.689,29.397 199.213,30.333 199.411 C 30.563 199.460,32.175 199.727,33.917 200.005 C 35.658 200.283,37.983 200.656,39.083 200.833 C 41.216 201.178,46.077 201.961,49.500 202.512 C 50.646 202.696,53.833 203.216,56.583 203.667 C 59.333 204.118,62.783 204.681,64.250 204.918 C 65.717 205.155,68.754 205.648,71.000 206.013 C 75.058 206.674,76.185 206.856,82.250 207.834 C 83.992 208.114,86.579 208.531,88.000 208.761 C 89.421 208.990,91.521 209.328,92.667 209.512 C 93.813 209.696,97.000 210.216,99.750 210.666 C 102.500 211.117,106.400 211.752,108.417 212.079 C 110.433 212.405,112.983 212.819,114.083 213.000 C 116.165 213.341,120.009 213.963,125.417 214.834 C 131.218 215.768,132.716 216.011,137.750 216.835 C 140.500 217.285,144.175 217.884,145.917 218.165 C 147.658 218.447,149.983 218.822,151.083 219.000 C 152.183 219.178,154.508 219.553,156.250 219.833 C 162.128 220.780,163.405 220.987,167.500 221.654 C 174.241 222.751,178.718 223.479,182.500 224.090 C 184.471 224.408,186.571 224.748,187.167 224.844 C 187.762 224.941,188.435 225.058,188.661 225.105 C 188.908 225.157,188.408 224.698,187.404 223.953 C 185.763 222.735,185.706 222.708,183.743 222.259 C 180.705 221.562,175.613 220.369,173.750 219.917 C 172.833 219.694,171.258 219.318,170.250 219.080 C 169.242 218.842,164.517 217.681,159.750 216.499 C 150.492 214.204,151.500 214.390,139.417 212.744 C 137.767 212.520,135.892 212.257,135.250 212.162 C 134.608 212.066,129.883 211.391,124.750 210.661 C 119.617 209.932,114.367 209.182,113.083 208.996 C 104.557 207.756,99.280 206.979,98.417 206.836 C 97.867 206.745,95.617 206.405,93.417 206.079 C 91.217 205.753,88.742 205.380,87.917 205.249 C 87.092 205.117,84.917 204.780,83.083 204.498 C 77.167 203.590,76.146 203.426,65.917 201.742 C 59.019 200.606,52.325 199.466,49.833 199.001 C 49.329 198.907,47.267 198.528,45.250 198.158 C 37.885 196.809,30.674 195.298,26.250 194.178 C 24.783 193.807,23.528 193.502,23.460 193.502 C 23.393 193.501,23.137 193.817,22.892 194.205 M279.583 197.672 C 278.117 198.214,276.763 198.726,276.574 198.810 C 276.386 198.894,275.336 200.070,274.241 201.422 C 273.146 202.775,271.273 205.089,270.078 206.566 C 268.390 208.653,267.778 209.294,267.328 209.447 C 267.010 209.555,264.575 210.408,261.917 211.342 C 256.825 213.131,235.336 220.309,231.500 221.503 L 229.250 222.203 227.125 224.307 C 225.956 225.465,225.000 226.538,225.000 226.692 C 225.000 226.847,225.190 227.935,225.421 229.112 C 226.869 236.463,229.378 240.621,232.565 240.950 L 233.421 241.038 236.321 238.811 C 239.720 236.200,246.410 230.657,249.069 228.250 C 249.170 228.158,249.964 227.446,250.835 226.667 C 251.705 225.887,252.454 225.213,252.500 225.167 C 252.546 225.121,252.997 224.708,253.503 224.250 C 254.009 223.792,255.427 222.479,256.655 221.333 C 257.882 220.188,258.972 219.175,259.077 219.083 C 259.183 218.992,260.015 218.204,260.926 217.333 C 266.103 212.388,270.648 208.035,272.321 206.421 C 273.369 205.410,274.387 204.433,274.584 204.250 C 275.444 203.451,280.514 198.657,281.500 197.712 C 282.096 197.140,282.508 196.676,282.417 196.680 C 282.325 196.685,281.050 197.131,279.583 197.672 " stroke="none" fill="#fbf8f2" fill-rule="evenodd"></path><path id="path4" d="M214.000 17.011 C 210.474 17.272,210.296 17.329,207.602 19.069 C 206.267 19.930,204.292 21.143,203.213 21.764 C 202.133 22.384,199.450 24.030,197.250 25.421 C 189.208 30.507,183.611 33.918,167.667 43.454 C 140.037 59.979,137.493 61.554,114.667 76.253 C 108.571 80.179,103.415 83.424,103.210 83.464 C 103.005 83.505,102.872 83.594,102.914 83.662 C 102.956 83.730,101.211 84.934,99.037 86.337 C 96.862 87.740,90.996 91.604,86.000 94.923 C 81.004 98.242,75.492 101.764,73.750 102.749 C 66.750 106.710,60.338 110.776,62.431 109.927 C 64.866 108.940,68.319 109.237,76.833 111.165 C 85.180 113.056,93.277 114.686,102.500 116.331 C 104.104 116.618,105.781 116.924,106.227 117.011 L 107.037 117.171 110.393 114.467 C 112.239 112.980,115.587 110.225,117.833 108.346 C 134.424 94.462,137.292 92.100,141.957 88.473 C 156.309 77.315,166.737 69.532,187.250 54.666 C 192.475 50.880,200.162 45.304,204.333 42.276 C 219.288 31.419,236.067 19.012,235.951 18.896 C 235.820 18.765,231.157 17.988,228.083 17.586 C 222.677 16.878,218.245 16.697,214.000 17.011 M342.244 52.375 L 341.417 53.250 342.292 52.423 C 343.105 51.654,343.243 51.500,343.119 51.500 C 343.092 51.500,342.699 51.894,342.244 52.375 M334.552 65.417 C 334.553 65.967,334.584 66.172,334.621 65.872 C 334.658 65.572,334.657 65.122,334.619 64.872 C 334.581 64.622,334.551 64.867,334.552 65.417 M310.417 78.611 C 304.404 83.225,301.151 85.805,297.333 88.987 C 294.443 91.397,287.517 97.290,287.333 97.497 C 287.287 97.549,286.012 98.674,284.500 99.998 C 282.987 101.322,281.412 102.715,281.000 103.093 C 280.587 103.472,279.087 104.822,277.667 106.094 C 272.855 110.403,262.052 120.379,258.083 124.180 C 257.350 124.882,255.011 127.098,252.885 129.103 C 250.759 131.109,247.366 134.489,245.345 136.615 C 236.523 145.895,234.609 146.878,225.833 146.636 C 225.329 146.622,224.654 146.604,224.333 146.597 L 223.750 146.583 223.300 147.926 C 221.968 151.895,221.406 155.524,221.548 159.250 C 221.686 162.898,221.083 163.143,227.421 156.866 C 232.587 151.750,233.663 150.706,237.672 146.917 C 244.287 140.666,251.776 133.837,265.082 121.925 C 265.906 121.187,266.881 120.311,267.249 119.979 C 267.616 119.646,269.454 118.001,271.333 116.324 C 282.879 106.017,293.735 96.078,299.914 90.158 C 308.029 82.383,315.544 74.910,315.141 75.015 C 315.109 75.023,312.983 76.641,310.417 78.611 M338.906 80.875 L 338.417 81.417 338.958 80.927 C 339.256 80.658,339.500 80.414,339.500 80.385 C 339.500 80.257,339.362 80.370,338.906 80.875 M374.375 83.417 C 374.377 83.783,374.411 83.914,374.451 83.706 C 374.491 83.499,374.490 83.199,374.448 83.040 C 374.406 82.880,374.374 83.050,374.375 83.417 M59.744 102.875 C 59.520 103.356,59.336 104.034,59.335 104.380 L 59.333 105.010 60.292 104.404 C 61.623 103.562,61.601 103.612,60.992 102.763 C 60.302 101.803,60.240 101.809,59.744 102.875 M354.324 108.458 L 353.750 109.083 354.375 108.509 C 354.719 108.193,355.000 107.912,355.000 107.884 C 355.000 107.757,354.859 107.877,354.324 108.458 M50.458 118.519 C 45.528 125.672,44.418 129.328,45.277 135.588 L 45.379 136.338 45.952 135.187 C 50.136 126.778,61.400 125.043,78.917 130.110 C 80.955 130.700,81.478 130.863,88.333 133.052 C 92.941 134.524,93.512 134.692,98.000 135.905 C 101.210 136.772,104.290 137.607,112.250 139.766 C 114.083 140.263,116.971 141.046,118.667 141.506 C 120.362 141.966,122.425 142.525,123.250 142.750 C 125.227 143.288,132.886 145.333,135.417 145.999 C 136.517 146.289,137.979 146.676,138.667 146.859 C 142.161 147.792,145.039 148.549,147.750 149.248 C 149.400 149.674,151.575 150.238,152.583 150.503 C 155.081 151.159,170.566 155.029,173.250 155.667 C 176.399 156.416,177.828 156.757,180.167 157.314 C 181.313 157.587,184.088 158.231,186.333 158.745 C 188.579 159.259,190.867 159.786,191.417 159.917 C 198.539 161.605,218.188 165.573,218.741 165.434 C 219.107 165.342,219.109 165.328,218.877 164.295 C 217.680 158.965,219.044 151.827,222.065 147.616 C 222.571 146.910,222.895 146.333,222.784 146.332 C 222.552 146.330,215.803 145.491,212.000 144.991 C 183.736 141.277,157.128 136.905,130.417 131.587 C 107.425 127.009,94.989 124.695,77.417 121.723 C 74.231 121.184,71.242 120.485,62.605 118.259 C 59.172 117.374,55.607 116.716,53.410 116.562 L 51.881 116.454 50.458 118.519 M367.916 129.500 C 369.135 130.897,370.152 132.325,370.907 133.698 C 371.537 134.845,372.601 137.573,372.379 137.472 C 372.308 137.440,371.613 137.085,370.833 136.684 C 361.445 131.847,351.332 133.096,328.417 141.919 C 321.941 144.413,322.679 144.145,312.500 147.693 C 311.446 148.060,309.852 148.617,308.958 148.930 C 308.065 149.244,306.602 149.756,305.708 150.069 C 294.671 153.934,288.875 155.998,283.333 158.039 C 282.096 158.495,280.408 159.114,279.583 159.414 C 274.526 161.257,261.049 166.627,254.017 169.601 C 249.518 171.503,250.460 170.773,244.529 176.956 C 237.384 184.405,234.737 186.020,229.500 186.126 C 228.079 186.155,226.692 186.190,226.417 186.204 C 226.142 186.218,224.854 186.101,223.555 185.944 L 221.194 185.658 219.555 186.601 C 216.062 188.613,208.908 192.922,208.554 193.228 C 208.537 193.242,208.644 193.778,208.790 194.419 C 208.979 195.246,209.060 196.489,209.070 198.708 C 209.077 200.427,209.132 201.833,209.191 201.833 C 210.109 201.835,217.066 199.685,220.917 198.208 C 225.037 196.629,231.190 193.983,231.583 193.622 C 231.675 193.538,231.487 193.582,231.167 193.721 C 230.846 193.859,229.121 194.606,227.333 195.381 C 224.026 196.814,218.317 199.039,218.213 198.936 C 218.182 198.904,218.553 198.709,219.037 198.501 C 219.521 198.293,220.370 197.916,220.924 197.662 C 221.478 197.409,224.178 196.211,226.924 195.000 C 229.670 193.790,232.396 192.577,232.982 192.305 C 234.239 191.723,240.305 189.164,240.667 189.064 C 240.804 189.026,239.342 189.789,237.417 190.760 L 233.917 192.525 235.013 192.427 C 238.175 192.146,241.476 190.477,244.675 187.543 C 245.438 186.843,246.790 186.098,252.425 183.277 C 261.168 178.899,263.222 177.971,272.417 174.249 C 309.366 159.293,332.813 150.789,344.500 148.106 C 357.736 145.066,367.214 145.975,370.989 150.645 L 371.478 151.250 371.985 150.138 C 374.947 143.639,373.321 135.072,368.084 129.583 L 366.970 128.417 367.916 129.500 M274.406 134.208 L 273.917 134.750 274.458 134.260 C 274.963 133.804,275.077 133.667,274.948 133.667 C 274.919 133.667,274.675 133.910,274.406 134.208 M267.824 140.292 L 267.250 140.917 267.875 140.342 C 268.457 139.808,268.577 139.667,268.449 139.667 C 268.422 139.667,268.140 139.948,267.824 140.292 M360.417 140.167 C 360.360 140.258,360.127 140.333,359.900 140.333 C 358.724 140.333,352.867 141.750,349.083 142.949 C 344.675 144.346,342.739 145.049,332.750 148.876 C 328.805 150.387,321.861 152.827,315.083 155.083 C 302.163 159.383,297.256 161.073,285.417 165.299 C 281.136 166.827,278.844 167.668,270.500 170.774 C 265.840 172.508,258.798 175.216,253.667 177.246 C 245.506 180.475,244.602 180.824,244.548 180.770 C 244.519 180.742,245.153 180.436,245.956 180.091 C 249.799 178.441,253.961 176.714,256.000 175.924 C 262.268 173.493,274.707 168.720,278.167 167.419 C 280.321 166.608,285.496 164.638,289.667 163.039 C 293.837 161.441,298.675 159.612,300.417 158.974 C 302.158 158.337,304.258 157.561,305.083 157.250 C 305.908 156.940,308.758 155.900,311.417 154.940 C 326.181 149.607,328.403 148.779,338.018 145.030 C 345.647 142.055,351.179 140.492,355.417 140.115 C 357.033 139.972,360.515 140.007,360.417 140.167 M260.744 147.042 L 259.917 147.917 260.792 147.090 C 261.273 146.635,261.667 146.241,261.667 146.215 C 261.667 146.090,261.512 146.229,260.744 147.042 M256.240 151.375 L 255.750 151.917 256.292 151.427 C 256.590 151.158,256.833 150.914,256.833 150.885 C 256.833 150.757,256.696 150.870,256.240 151.375 M40.333 151.067 C 40.333 151.473,41.919 153.845,43.242 155.419 L 44.084 156.422 45.368 155.580 C 46.721 154.691,46.778 154.333,45.567 154.333 C 45.109 154.333,42.488 152.702,41.193 151.610 C 40.497 151.024,40.333 150.921,40.333 151.067 M252.742 154.708 L 252.083 155.417 252.792 154.758 C 253.450 154.145,253.577 154.000,253.450 154.000 C 253.423 154.000,253.105 154.319,252.742 154.708 M249.906 157.375 L 249.417 157.917 249.958 157.427 C 250.463 156.971,250.577 156.833,250.448 156.833 C 250.419 156.833,250.175 157.077,249.906 157.375 M245.573 161.375 L 245.083 161.917 245.625 161.427 C 246.130 160.971,246.243 160.833,246.115 160.833 C 246.086 160.833,245.842 161.077,245.573 161.375 M141.140 173.915 C 143.648 175.348,146.686 177.199,149.781 179.180 C 151.172 180.071,152.340 180.771,152.375 180.736 C 152.411 180.700,153.035 180.785,153.762 180.925 C 155.160 181.193,156.511 181.438,160.167 182.086 C 165.640 183.057,167.669 183.403,174.417 184.516 L 181.583 185.698 183.083 186.633 C 187.747 189.540,199.499 197.024,203.465 199.612 C 204.775 200.467,205.881 201.167,205.924 201.167 C 206.039 201.167,205.977 195.985,205.855 195.466 C 205.750 195.016,205.750 195.016,205.339 195.327 L 204.928 195.639 203.672 194.758 C 197.889 190.700,189.890 185.391,183.726 181.520 L 181.535 180.144 178.559 179.668 C 172.271 178.663,170.274 178.335,165.917 177.588 C 158.425 176.304,153.246 175.381,146.228 174.076 C 142.550 173.393,139.475 172.834,139.395 172.834 C 139.315 172.835,140.101 173.321,141.140 173.915 M27.348 176.292 C 21.991 183.969,20.752 188.144,21.611 195.619 L 21.711 196.488 22.353 195.211 C 23.318 193.290,23.030 193.368,26.185 194.164 C 30.719 195.308,37.884 196.809,45.250 198.158 C 47.267 198.528,49.329 198.907,49.833 199.001 C 52.325 199.466,59.019 200.606,65.917 201.742 C 76.146 203.426,77.167 203.590,83.083 204.498 C 84.917 204.780,87.092 205.117,87.917 205.249 C 88.742 205.380,91.217 205.753,93.417 206.079 C 95.617 206.405,97.867 206.745,98.417 206.836 C 99.280 206.979,104.557 207.756,113.083 208.996 C 114.367 209.182,119.617 209.932,124.750 210.661 C 129.883 211.391,134.608 212.066,135.250 212.162 C 135.892 212.257,137.767 212.520,139.417 212.744 C 151.500 214.390,150.492 214.204,159.750 216.499 C 164.517 217.681,169.242 218.842,170.250 219.080 C 171.258 219.318,172.833 219.694,173.750 219.917 C 175.613 220.369,180.705 221.562,183.743 222.259 C 185.706 222.708,185.763 222.735,187.404 223.953 C 188.408 224.698,188.908 225.157,188.661 225.105 C 188.435 225.058,187.762 224.941,187.167 224.844 C 186.571 224.748,184.471 224.408,182.500 224.090 C 178.718 223.479,174.241 222.751,167.500 221.654 C 163.405 220.987,162.128 220.780,156.250 219.833 C 154.508 219.553,152.183 219.178,151.083 219.000 C 149.983 218.822,147.658 218.447,145.917 218.165 C 144.175 217.884,140.500 217.285,137.750 216.835 C 132.716 216.011,131.218 215.768,125.417 214.834 C 120.009 213.963,116.165 213.341,114.083 213.000 C 112.983 212.819,110.433 212.405,108.417 212.079 C 106.400 211.752,102.500 211.117,99.750 210.666 C 97.000 210.216,93.813 209.696,92.667 209.512 C 90.462 209.157,85.955 208.431,81.667 207.739 C 80.246 207.510,78.183 207.178,77.083 207.000 C 75.983 206.823,73.246 206.379,71.000 206.013 C 68.754 205.648,65.717 205.155,64.250 204.918 C 62.783 204.681,59.333 204.118,56.583 203.667 C 53.833 203.216,50.646 202.696,49.500 202.512 C 46.077 201.961,41.216 201.178,39.083 200.833 C 37.983 200.656,35.658 200.283,33.917 200.005 C 32.175 199.727,30.563 199.460,30.333 199.411 C 29.397 199.213,30.486 199.689,32.417 200.321 C 36.869 201.779,44.877 203.570,56.273 205.656 C 59.285 206.207,62.125 206.731,62.583 206.821 C 63.042 206.910,65.217 207.288,67.417 207.661 C 69.617 208.034,72.279 208.487,73.333 208.668 C 75.884 209.105,84.612 210.523,88.667 211.159 C 90.454 211.440,92.854 211.818,94.000 212.000 C 95.942 212.308,105.771 213.804,109.917 214.421 C 113.303 214.926,113.734 214.989,118.333 215.664 C 120.854 216.033,125.804 216.748,129.333 217.252 C 132.862 217.755,136.200 218.241,136.750 218.331 C 137.300 218.421,139.962 218.797,142.667 219.165 C 145.371 219.534,148.033 219.908,148.583 219.997 C 149.133 220.087,151.008 220.351,152.750 220.586 C 154.492 220.820,156.404 221.083,157.000 221.169 C 157.596 221.255,159.771 221.554,161.833 221.833 C 163.896 222.112,166.108 222.414,166.750 222.504 C 168.388 222.735,173.521 223.423,176.000 223.743 C 177.146 223.892,178.533 224.082,179.083 224.167 C 179.633 224.251,181.021 224.439,182.167 224.585 C 183.313 224.730,184.737 224.918,185.333 225.002 C 185.929 225.086,187.128 225.245,187.998 225.356 C 189.510 225.549,189.645 225.601,191.081 226.546 C 195.795 229.648,200.721 230.797,204.009 229.562 C 204.521 229.370,205.159 229.248,205.435 229.288 C 205.729 229.331,206.862 229.089,208.176 228.701 L 210.417 228.041 215.750 229.109 C 220.940 230.149,221.967 230.257,221.770 229.743 C 221.088 227.964,220.874 221.656,221.404 218.943 C 221.735 217.254,221.718 217.208,220.875 217.477 C 215.378 219.237,205.786 222.003,205.250 221.983 C 204.883 221.969,204.022 222.118,203.337 222.312 C 198.502 223.686,194.443 222.097,185.248 215.233 L 181.912 212.742 176.998 212.097 C 174.295 211.742,171.345 211.353,170.442 211.233 C 169.110 211.056,168.648 210.916,167.984 210.490 C 166.984 209.848,166.984 209.854,167.958 210.010 C 168.394 210.080,171.360 210.561,174.550 211.080 C 177.740 211.598,180.440 211.991,180.550 211.953 C 180.660 211.915,176.255 208.895,170.761 205.242 L 160.772 198.600 159.511 198.392 C 148.624 196.597,135.292 194.109,114.917 190.069 C 95.293 186.179,78.421 183.060,60.417 179.994 C 54.646 179.011,52.386 178.511,45.833 176.763 C 38.042 174.684,32.951 173.676,30.214 173.669 L 29.179 173.667 27.348 176.292 M45.917 186.258 C 51.908 186.963,57.748 188.406,68.167 191.754 C 74.538 193.802,76.422 194.377,79.405 195.185 C 81.193 195.669,82.636 196.086,82.611 196.111 C 82.586 196.136,81.220 195.935,79.574 195.664 C 75.987 195.072,66.243 193.482,63.333 193.013 C 62.188 192.828,59.825 192.447,58.083 192.167 C 56.342 191.886,54.017 191.511,52.917 191.333 C 51.817 191.156,49.492 190.781,47.750 190.501 C 46.008 190.221,43.458 189.809,42.083 189.584 C 33.594 188.198,31.280 187.833,30.952 187.827 C 29.896 187.808,33.897 186.631,36.271 186.262 C 38.297 185.947,43.258 185.945,45.917 186.258 M37.667 190.049 C 42.204 191.153,43.290 191.392,48.333 192.398 C 54.433 193.615,56.853 194.081,59.250 194.503 C 60.350 194.696,62.300 195.040,63.583 195.267 C 72.304 196.810,88.633 199.466,99.333 201.080 C 100.846 201.309,102.383 201.543,102.750 201.601 C 103.117 201.659,104.729 202.063,106.333 202.500 C 107.938 202.937,110.563 203.647,112.167 204.078 C 113.771 204.508,116.133 205.146,117.417 205.496 C 118.700 205.845,121.662 206.634,124.000 207.250 C 126.337 207.866,128.887 208.542,129.667 208.754 C 132.482 209.519,135.454 210.302,137.288 210.761 C 139.652 211.354,139.587 211.426,137.067 211.009 C 135.054 210.676,133.582 210.438,127.167 209.410 C 125.196 209.094,123.171 208.758,122.667 208.664 C 122.162 208.570,120.100 208.230,118.083 207.908 C 116.067 207.586,113.517 207.178,112.417 207.000 C 111.317 206.823,109.217 206.484,107.750 206.247 C 106.283 206.011,103.246 205.519,101.000 205.153 C 98.754 204.788,96.017 204.344,94.917 204.166 C 88.060 203.061,85.282 202.615,82.917 202.240 C 81.450 202.008,79.912 201.749,79.500 201.665 C 79.087 201.581,77.737 201.355,76.500 201.163 C 75.262 200.971,72.412 200.515,70.167 200.151 C 67.921 199.787,65.146 199.338,64.000 199.153 C 62.103 198.848,57.044 198.031,53.250 197.418 C 52.425 197.284,49.913 196.877,47.667 196.512 C 45.421 196.147,42.383 195.656,40.917 195.419 C 39.450 195.183,37.350 194.844,36.250 194.666 C 33.365 194.201,28.174 193.367,26.333 193.074 C 23.652 192.647,23.800 192.797,24.932 191.640 C 26.189 190.354,27.368 189.475,29.008 188.599 L 30.312 187.902 32.448 188.601 C 33.622 188.985,35.971 189.637,37.667 190.049 M232.667 193.000 C 232.162 193.266,231.825 193.484,231.917 193.484 C 232.008 193.484,232.496 193.266,233.000 193.000 C 233.504 192.734,233.842 192.516,233.750 192.516 C 233.658 192.516,233.171 192.734,232.667 193.000 M282.750 196.461 C 282.658 196.528,282.435 196.771,282.253 197.000 C 281.976 197.348,282.011 197.336,282.461 196.927 C 282.948 196.485,283.079 196.328,282.958 196.336 C 282.935 196.337,282.842 196.394,282.750 196.461 M279.742 199.375 L 279.083 200.083 279.792 199.425 C 280.450 198.812,280.577 198.667,280.450 198.667 C 280.423 198.667,280.105 198.985,279.742 199.375 M274.167 199.610 C 261.981 204.027,241.108 211.115,229.833 214.665 C 228.046 215.228,226.237 215.799,225.814 215.934 L 225.044 216.179 224.845 217.414 C 224.615 218.835,224.560 222.887,224.739 225.083 L 224.862 226.583 227.020 224.403 L 229.178 222.224 230.714 221.759 C 233.511 220.912,256.997 213.072,261.917 211.342 C 264.575 210.408,267.010 209.555,267.328 209.447 C 267.778 209.294,268.390 208.653,270.078 206.564 C 271.273 205.087,273.171 202.743,274.298 201.356 C 275.424 199.969,276.324 198.838,276.298 198.844 C 276.271 198.850,275.313 199.195,274.167 199.610 M276.742 202.208 L 276.083 202.917 276.792 202.258 C 277.450 201.645,277.577 201.500,277.450 201.500 C 277.423 201.500,277.105 201.819,276.742 202.208 M273.333 205.417 C 272.928 205.829,272.635 206.167,272.681 206.167 C 272.726 206.167,273.095 205.829,273.500 205.417 C 273.905 205.004,274.199 204.667,274.153 204.667 C 274.107 204.667,273.738 205.004,273.333 205.417 M269.494 209.125 L 268.583 210.083 269.542 209.172 C 270.069 208.671,270.500 208.240,270.500 208.214 C 270.500 208.090,270.341 208.235,269.494 209.125 M52.542 211.615 C 52.702 211.657,52.965 211.657,53.125 211.615 C 53.285 211.573,53.154 211.539,52.833 211.539 C 52.512 211.539,52.381 211.573,52.542 211.615 M261.577 216.708 L 260.750 217.583 261.625 216.756 C 262.438 215.988,262.576 215.833,262.452 215.833 C 262.426 215.833,262.032 216.227,261.577 216.708 M181.209 218.180 C 182.012 218.294,182.637 218.419,182.598 218.457 C 182.468 218.588,179.328 218.126,179.226 217.961 C 179.168 217.867,179.257 217.835,179.437 217.886 C 179.609 217.934,180.407 218.067,181.209 218.180 M258.324 219.792 L 257.750 220.417 258.375 219.842 C 258.719 219.526,259.000 219.245,259.000 219.217 C 259.000 219.090,258.859 219.210,258.324 219.792 M256.079 238.042 L 254.750 239.417 256.125 238.087 C 257.402 236.853,257.576 236.667,257.454 236.667 C 257.429 236.667,256.811 237.285,256.079 238.042 M229.667 239.583 C 229.978 239.904,230.270 240.167,230.315 240.167 C 230.361 240.167,230.144 239.904,229.833 239.583 C 229.522 239.262,229.230 239.000,229.185 239.000 C 229.139 239.000,229.356 239.262,229.667 239.583 " stroke="none" fill="#d3c5a2" fill-rule="evenodd"></path></g></svg>